<mxfile host="app.diagrams.net" modified="2024-04-23T18:03:51.575Z" agent="Mozilla/5.0 (Windows NT 10.0; Win64; x64) AppleWebKit/537.36 (KHTML, like Gecko) Chrome/124.0.0.0 Safari/537.36" etag="1GXajt6OjLcYHZ_FdCEG" version="24.2.8" type="device">
  <diagram name="第 1 页" id="FF9FlLgEVKZkiyAAGDJV">
    <mxGraphModel dx="1434" dy="738" grid="1" gridSize="10" guides="1" tooltips="1" connect="1" arrows="1" fold="1" page="1" pageScale="1" pageWidth="827" pageHeight="1169" math="0" shadow="0">
      <root>
        <mxCell id="0" />
        <mxCell id="1" parent="0" />
        <mxCell id="8J8dFOvxb4lYqvOgpjhu-4" style="edgeStyle=orthogonalEdgeStyle;rounded=0;orthogonalLoop=1;jettySize=auto;html=1;exitX=0.909;exitY=1.05;exitDx=0;exitDy=0;entryX=0.5;entryY=0;entryDx=0;entryDy=0;exitPerimeter=0;" parent="1" source="0alPk9QA0vow39BospPr-1" target="0alPk9QA0vow39BospPr-10" edge="1">
          <mxGeometry relative="1" as="geometry">
            <Array as="points" />
          </mxGeometry>
        </mxCell>
        <mxCell id="8J8dFOvxb4lYqvOgpjhu-6" style="edgeStyle=orthogonalEdgeStyle;rounded=0;orthogonalLoop=1;jettySize=auto;html=1;exitX=0.25;exitY=1;exitDx=0;exitDy=0;entryX=0.5;entryY=0;entryDx=0;entryDy=0;" parent="1" source="0alPk9QA0vow39BospPr-1" target="0alPk9QA0vow39BospPr-3" edge="1">
          <mxGeometry relative="1" as="geometry">
            <Array as="points">
              <mxPoint x="196" y="200" />
            </Array>
          </mxGeometry>
        </mxCell>
        <mxCell id="0alPk9QA0vow39BospPr-1" value="&lt;span style=&quot;font-weight: normal; font-size: 16px;&quot;&gt;if &lt;/span&gt;&lt;u style=&quot;font-size: 16px;&quot;&gt;number_crossing_0 &amp;lt; 6.0&lt;/u&gt;&lt;span style=&quot;font-weight: normal; font-size: 16px;&quot;&gt;, and agg_linear_trend_attr_‘‘intercept’’_ &amp;gt; 0.4, then class: 3&lt;/span&gt;" style="rounded=0;whiteSpace=wrap;html=1;fontSize=16;fontStyle=1;fillColor=#f5f5f5;fontColor=#333333;strokeColor=#666666;" parent="1" vertex="1">
          <mxGeometry x="70" y="180" width="640" height="20" as="geometry" />
        </mxCell>
        <mxCell id="0alPk9QA0vow39BospPr-22" value="" style="group;fontSize=18;" parent="1" vertex="1" connectable="0">
          <mxGeometry x="70" y="230" width="640" height="50" as="geometry" />
        </mxCell>
        <mxCell id="0alPk9QA0vow39BospPr-3" value="Feature name" style="rounded=0;whiteSpace=wrap;html=1;fillColor=#fff2cc;strokeColor=#d6b656;fontSize=18;" parent="0alPk9QA0vow39BospPr-22" vertex="1">
          <mxGeometry width="252.12121212121212" height="25" as="geometry" />
        </mxCell>
        <mxCell id="0alPk9QA0vow39BospPr-5" value="Meaning" style="rounded=0;whiteSpace=wrap;html=1;fillColor=#dae8fc;strokeColor=#6c8ebf;fontSize=18;" parent="0alPk9QA0vow39BospPr-22" vertex="1">
          <mxGeometry x="252.12121212121212" width="155.15151515151516" height="25" as="geometry" />
        </mxCell>
        <mxCell id="0alPk9QA0vow39BospPr-8" value="Type" style="rounded=0;whiteSpace=wrap;html=1;fillColor=#d5e8d4;strokeColor=#82b366;fontSize=18;" parent="0alPk9QA0vow39BospPr-22" vertex="1">
          <mxGeometry x="407.2727272727273" width="116.36363636363637" height="25" as="geometry" />
        </mxCell>
        <mxCell id="0alPk9QA0vow39BospPr-10" value="Value" style="rounded=0;whiteSpace=wrap;html=1;fillColor=#ffe6cc;strokeColor=#d79b00;fontSize=18;" parent="0alPk9QA0vow39BospPr-22" vertex="1">
          <mxGeometry x="523.6363636363636" width="116.36363636363637" height="25" as="geometry" />
        </mxCell>
        <mxCell id="0alPk9QA0vow39BospPr-18" value="&lt;span style=&quot;caret-color: rgb(51, 51, 51); color: rgb(51, 51, 51); font-size: 18px;&quot;&gt;number_crossing_0&lt;/span&gt;" style="rounded=0;whiteSpace=wrap;html=1;fillColor=#fff2cc;strokeColor=#d6b656;fontSize=18;fontStyle=0" parent="0alPk9QA0vow39BospPr-22" vertex="1">
          <mxGeometry y="25" width="252.12121212121212" height="25" as="geometry" />
        </mxCell>
        <mxCell id="0alPk9QA0vow39BospPr-19" value="Direction changes" style="rounded=0;whiteSpace=wrap;html=1;fillColor=#dae8fc;strokeColor=#6c8ebf;fontSize=18;" parent="0alPk9QA0vow39BospPr-22" vertex="1">
          <mxGeometry x="252.12121212121212" y="25" width="155.15151515151516" height="25" as="geometry" />
        </mxCell>
        <mxCell id="0alPk9QA0vow39BospPr-20" value="Noun" style="rounded=0;whiteSpace=wrap;html=1;fillColor=#d5e8d4;strokeColor=#82b366;fontSize=18;" parent="0alPk9QA0vow39BospPr-22" vertex="1">
          <mxGeometry x="407.2727272727273" y="25" width="116.36363636363637" height="25" as="geometry" />
        </mxCell>
        <mxCell id="0alPk9QA0vow39BospPr-21" value="6.0" style="rounded=0;whiteSpace=wrap;html=1;fillColor=#ffe6cc;strokeColor=#d79b00;fontSize=18;" parent="0alPk9QA0vow39BospPr-22" vertex="1">
          <mxGeometry x="523.6363636363636" y="25" width="116.36363636363637" height="25" as="geometry" />
        </mxCell>
        <mxCell id="8J8dFOvxb4lYqvOgpjhu-7" value="" style="curved=1;endArrow=classic;html=1;rounded=0;exitX=0.75;exitY=0;exitDx=0;exitDy=0;entryX=0.25;entryY=0;entryDx=0;entryDy=0;" parent="0alPk9QA0vow39BospPr-22" source="0alPk9QA0vow39BospPr-3" target="0alPk9QA0vow39BospPr-5" edge="1">
          <mxGeometry width="50" height="50" relative="1" as="geometry">
            <mxPoint x="320" y="93.75" as="sourcePoint" />
            <mxPoint x="370" y="62.5" as="targetPoint" />
            <Array as="points">
              <mxPoint x="220" y="-12.5" />
              <mxPoint x="260" y="-12.5" />
            </Array>
          </mxGeometry>
        </mxCell>
        <mxCell id="8J8dFOvxb4lYqvOgpjhu-9" value="" style="curved=1;endArrow=classic;html=1;rounded=0;exitX=0.75;exitY=0;exitDx=0;exitDy=0;entryX=0.5;entryY=0;entryDx=0;entryDy=0;" parent="0alPk9QA0vow39BospPr-22" source="0alPk9QA0vow39BospPr-5" target="0alPk9QA0vow39BospPr-8" edge="1">
          <mxGeometry width="50" height="50" relative="1" as="geometry">
            <mxPoint x="360" as="sourcePoint" />
            <mxPoint x="462" as="targetPoint" />
            <Array as="points">
              <mxPoint x="391" y="-12.5" />
              <mxPoint x="431" y="-12.5" />
            </Array>
          </mxGeometry>
        </mxCell>
        <mxCell id="8J8dFOvxb4lYqvOgpjhu-8" value="GPT" style="text;html=1;align=center;verticalAlign=middle;whiteSpace=wrap;rounded=0;fontSize=16;fontStyle=1" parent="1" vertex="1">
          <mxGeometry x="280" y="195" width="60" height="30" as="geometry" />
        </mxCell>
        <mxCell id="8J8dFOvxb4lYqvOgpjhu-10" value="Manually&amp;nbsp;" style="text;html=1;align=center;verticalAlign=middle;whiteSpace=wrap;rounded=0;fontSize=16;fontStyle=1" parent="1" vertex="1">
          <mxGeometry x="416" y="195" width="140" height="30" as="geometry" />
        </mxCell>
        <mxCell id="8J8dFOvxb4lYqvOgpjhu-11" value="Directly" style="text;html=1;align=center;verticalAlign=middle;whiteSpace=wrap;rounded=0;fontSize=16;fontStyle=1" parent="1" vertex="1">
          <mxGeometry x="551" y="200" width="140" height="30" as="geometry" />
        </mxCell>
        <mxCell id="8J8dFOvxb4lYqvOgpjhu-12" value="Directly" style="text;html=1;align=center;verticalAlign=middle;whiteSpace=wrap;rounded=0;fontSize=16;fontStyle=1" parent="1" vertex="1">
          <mxGeometry x="90" y="200" width="140" height="30" as="geometry" />
        </mxCell>
      </root>
    </mxGraphModel>
  </diagram>
</mxfile>
